<svg xmlns="http://www.w3.org/2000/svg" width="1024" height="1024" viewBox="0 0 1024 1024">
  <path fill="#111318" fill-rule="evenodd" d="M512.735,145.352 L919.477,827.203 L102.89,827.203 Z M218.437,702.265 L218.437,702.265 A23.273,23.273 0 0 1 241.71,725.537 L241.71,772.083 A23.273,23.273 0 0 1 218.437,795.356 L218.437,795.356 A23.273,23.273 0 0 1 195.164,772.083 L195.164,725.537 A23.273,23.273 0 0 1 218.437,702.265 Z M288.255,623.872 L288.255,623.872 A23.273,23.273 0 0 1 311.528,647.145 L311.528,772.083 A23.273,23.273 0 0 1 288.255,795.356 L288.255,795.356 A23.273,23.273 0 0 1 264.982,772.083 L264.982,647.145 A23.273,23.273 0 0 1 288.255,623.872 Z M356.848,573.244 L356.848,573.244 A23.273,23.273 0 0 1 380.121,596.517 L380.121,772.083 A23.273,23.273 0 0 1 356.848,795.356 L356.848,795.356 A23.273,23.273 0 0 1 333.576,772.083 L333.576,596.517 A23.273,23.273 0 0 1 356.848,573.244 Z M426.258,613.257 L426.258,613.257 A23.273,23.273 0 0 1 449.531,636.53 L449.531,772.083 A23.273,23.273 0 0 1 426.258,795.356 L426.258,795.356 A23.273,23.273 0 0 1 402.986,772.083 L402.986,636.53 A23.273,23.273 0 0 1 426.258,613.257 Z M495.668,658.986 L495.668,658.986 A23.273,23.273 0 0 1 518.941,682.258 L518.941,772.083 A23.273,23.273 0 0 1 495.668,795.356 L495.668,795.356 A23.273,23.273 0 0 1 472.396,772.083 L472.396,682.258 A23.273,23.273 0 0 1 495.668,658.986 Z M567.936,547.113 L567.936,547.113 A23.273,23.273 0 0 1 591.209,570.386 L591.209,772.083 A23.273,23.273 0 0 1 567.936,795.356 L567.936,795.356 A23.273,23.273 0 0 1 544.663,772.083 L544.663,570.386 A23.273,23.273 0 0 1 567.936,547.113 Z M636.53,492.402 L636.53,492.402 A23.273,23.273 0 0 1 659.802,515.675 L659.802,772.083 A23.273,23.273 0 0 1 636.53,795.356 L636.53,795.356 A23.273,23.273 0 0 1 613.257,772.083 L613.257,515.675 A23.273,23.273 0 0 1 636.53,492.402 Z M706.348,538.131 L706.348,538.131 A23.273,23.273 0 0 1 729.62,561.404 L729.62,772.083 A23.273,23.273 0 0 1 706.348,795.356 L706.348,795.356 A23.273,23.273 0 0 1 683.075,772.083 L683.075,561.404 A23.273,23.273 0 0 1 706.348,538.131 Z M776.574,689.199 L776.574,689.199 A23.273,23.273 0 0 1 799.847,712.472 L799.847,772.083 A23.273,23.273 0 0 1 776.574,795.356 L776.574,795.356 A23.273,23.273 0 0 1 753.301,772.083 L753.301,712.472 A23.273,23.273 0 0 1 776.574,689.199 Z"/>
</svg>
