<svg xmlns="http://www.w3.org/2000/svg" width="100" height="100" viewBox="0 0 100 100">
  <path fill="#111318" fill-rule="evenodd" d="M50.167,13.26 L94,86.74 L6,86.74 Z M18.452,73.276 A2.508,2.508 0 0 1 20.96,75.784 L20.96,80.8 A2.508,2.508 0 0 1 18.452,83.308 A2.508,2.508 0 0 1 15.944,80.8 L15.944,75.784 A2.508,2.508 0 0 1 18.452,73.276 Z M25.976,64.828 A2.508,2.508 0 0 1 28.484,67.336 L28.484,80.8 A2.508,2.508 0 0 1 25.976,83.308 A2.508,2.508 0 0 1 23.468,80.8 L23.468,67.336 A2.508,2.508 0 0 1 25.976,64.828 Z M33.368,59.372 A2.508,2.508 0 0 1 35.876,61.88 L35.876,80.8 A2.508,2.508 0 0 1 33.368,83.308 A2.508,2.508 0 0 1 30.86,80.8 L30.86,61.88 A2.508,2.508 0 0 1 33.368,59.372 Z M40.848,63.684 A2.508,2.508 0 0 1 43.356,66.192 L43.356,80.8 A2.508,2.508 0 0 1 40.848,83.308 A2.508,2.508 0 0 1 38.34,80.8 L38.34,66.192 A2.508,2.508 0 0 1 40.848,63.684 Z M48.328,68.612 A2.508,2.508 0 0 1 50.836,71.12 L50.836,80.8 A2.508,2.508 0 0 1 48.328,83.308 A2.508,2.508 0 0 1 45.82,80.8 L45.82,71.12 A2.508,2.508 0 0 1 48.328,68.612 Z M56.116,56.556 A2.508,2.508 0 0 1 58.624,59.064 L58.624,80.8 A2.508,2.508 0 0 1 56.116,83.308 A2.508,2.508 0 0 1 53.608,80.8 L53.608,59.064 A2.508,2.508 0 0 1 56.116,56.556 Z M63.508,50.66 A2.508,2.508 0 0 1 66.016,53.168 L66.016,80.8 A2.508,2.508 0 0 1 63.508,83.308 A2.508,2.508 0 0 1 61,80.8 L61,53.168 A2.508,2.508 0 0 1 63.508,50.66 Z M71.032,55.588 A2.508,2.508 0 0 1 73.54,58.096 L73.54,80.8 A2.508,2.508 0 0 1 71.032,83.308 A2.508,2.508 0 0 1 68.524,80.8 L68.524,58.096 A2.508,2.508 0 0 1 71.032,55.588 Z M78.6,71.868 A2.508,2.508 0 0 1 81.108,74.376 L81.108,80.8 A2.508,2.508 0 0 1 78.6,83.308 A2.508,2.508 0 0 1 76.092,80.8 L76.092,74.376 A2.508,2.508 0 0 1 78.6,71.868 Z"/>
</svg>
