<svg xmlns="http://www.w3.org/2000/svg" width="78" height="34" viewBox="0 0 78 34" role="img" aria-labelledby="title">
  <title id="title">МИР</title>
  <rect width="78" height="34" rx="8" fill="#ffffff"/>
  <path d="M12 22V12h5.2l3.5 6 3.5-6h5.2v10h-4.1v-6.4L21.7 22h-2l-3.6-6.4V22H12Z" fill="#161616"/>
  <path d="M33 22V12h4.1v6l5.2-6h4.2v10h-4.1v-6l-5.2 6H33Z" fill="#161616"/>
  <path d="M50 22V12h9.3c3 0 5 1.8 5 4.5s-2 4.5-5 4.5h-5.2v1H50Zm4.1-4.3h4.5c.9 0 1.5-.5 1.5-1.2s-.6-1.2-1.5-1.2h-4.5v2.4Z" fill="#161616"/>
  <path d="M64 12h5.8c-1.3 3.5-4.1 5.4-8.1 5.8.6-2.6 1.3-4.4 2.3-5.8Z" fill="#00A650"/>
</svg>
