<svg xmlns="http://www.w3.org/2000/svg" width="78" height="34" viewBox="0 0 78 34" role="img" aria-labelledby="title">
  <title id="title">Visa</title>
  <rect width="78" height="34" rx="8" fill="#ffffff"/>
  <path d="M20.4 22h-4.1l-3-10h3.7l1.5 6.3L22.3 12h4.2l-6.1 10Z" fill="#1434CB"/>
  <path d="M26.5 22 28 12h3.7l-1.5 10h-3.7Z" fill="#1434CB"/>
  <path d="M39.1 14.8c-1.2-.5-2.1-.7-2.8-.7-.8 0-1.2.2-1.2.7 0 .4.5.7 1.6 1.1 1.9.7 3.2 1.5 3.2 3.1 0 2.2-2 3.3-4.7 3.3-1.5 0-2.9-.3-4-.9l.5-2.9c1.1.6 2.3 1 3.3 1 .8 0 1.3-.2 1.3-.7 0-.4-.4-.7-1.6-1.1-1.7-.6-3.1-1.4-3.1-3 0-2 1.8-3.1 4.5-3.1 1.3 0 2.5.2 3.5.6l-.5 2.6Z" fill="#1434CB"/>
  <path d="M47.8 22l-.4-1.6h-4.2l-.9 1.6h-4.1L44.4 12h4.4L51.7 22h-3.9Zm-3.2-4.2h2.2l-.8-3.4-1.4 3.4Z" fill="#1434CB"/>
  <path d="M29.1 11.2h3.5L29 9.2l-.9 2Z" fill="#F7B600"/>
</svg>
